<svg width="107" height="109" viewBox="0 0 107 109" fill="none" xmlns="http://www.w3.org/2000/svg">
<path d="M67.4026 24.139C71.5453 25.1197 75.3034 27.3446 78.1959 30.5291C81.0883 33.7136 82.9835 37.7128 83.6389 42.0148M68.0533 6.63858C76.6881 7.93009 84.6264 12.1905 90.5649 18.7203C96.5034 25.2502 100.089 33.6613 100.733 42.5726M95.1618 77.3356L94.6737 90.4609C94.6332 91.6795 94.3446 92.877 93.8263 93.9767C93.308 95.0763 92.5715 96.0539 91.6639 96.8467C90.7563 97.6396 89.6977 98.2303 88.5558 98.581C87.4139 98.9317 86.214 99.0346 85.0328 98.8832C71.9379 96.9576 59.4782 91.9126 48.6548 84.1537C38.5799 77.0731 30.1596 67.8026 23.992 57.0007C17.1947 45.3328 13.1837 32.1796 12.2839 18.6068C12.2221 17.3932 12.4079 16.1787 12.8294 15.0408C13.2509 13.9029 13.899 12.8664 14.7323 11.9974C15.5655 11.1284 16.5658 10.4458 17.6694 9.99315C18.773 9.54052 19.9557 9.32774 21.1422 9.36835L33.9617 9.81954C36.0363 9.87163 38.0188 10.6943 39.5397 12.1341C41.0606 13.574 42.0161 15.5328 42.2282 17.6455C42.6131 21.865 43.4632 26.0245 44.7622 30.0449C45.2789 31.631 45.3401 33.3373 44.9384 34.9614C44.5368 36.5856 43.6892 38.0595 42.496 39.2086L36.8625 44.574C42.5383 55.7414 51.0589 65.1223 61.5253 71.7271L67.1589 66.3617C68.3644 65.2263 69.8614 64.4672 71.4724 64.1745C73.0834 63.8818 74.7409 64.0677 76.2485 64.7102C80.0703 66.3279 84.0603 67.497 88.1422 68.1954C90.2068 68.5683 92.0627 69.7055 93.357 71.3907C94.6512 73.076 95.2935 75.1917 95.1618 77.3356Z" stroke="white" stroke-width="4" stroke-linecap="round" stroke-linejoin="round"/>
</svg>
