<svg width="129" height="122" viewBox="0 0 129 122" fill="none" xmlns="http://www.w3.org/2000/svg">
<path d="M48.491 45.5872C49.7452 42.2019 52.2207 39.3474 55.4791 37.5291C58.7375 35.7108 62.5684 35.0461 66.2934 35.6528C70.0185 36.2595 73.3972 38.0984 75.8311 40.8437C78.2651 43.5891 79.5972 47.0638 79.5916 50.6524C79.5916 60.7829 63.5879 65.8482 63.5879 65.8482M64.0146 86.1091H64.068M117.36 60.7829C117.36 88.7575 93.4766 111.435 64.0146 111.435C34.5526 111.435 10.6689 88.7575 10.6689 60.7829C10.6689 32.8084 34.5526 10.1305 64.0146 10.1305C93.4766 10.1305 117.36 32.8084 117.36 60.7829Z" stroke="white" stroke-width="4" stroke-linecap="round" stroke-linejoin="round"/>
</svg>
